<?xml version="1.0" encoding="UTF-8" standalone="no"?>
<!-- Created with Inkscape (http://www.inkscape.org/) -->

<svg
   version="1.1"
   id="svg2"
   width="182.53333"
   height="181.98666"
   viewBox="0 0 182.53333 181.98666"
   sodipodi:docname="GP-logo.eps"
   xmlns:inkscape="http://www.inkscape.org/namespaces/inkscape"
   xmlns:sodipodi="http://sodipodi.sourceforge.net/DTD/sodipodi-0.dtd"
   xmlns="http://www.w3.org/2000/svg"
   xmlns:svg="http://www.w3.org/2000/svg">
  <defs
     id="defs6" />
  <sodipodi:namedview
     id="namedview4"
     pagecolor="#ffffff"
     bordercolor="#000000"
     borderopacity="0.25"
     inkscape:showpageshadow="2"
     inkscape:pageopacity="0.0"
     inkscape:pagecheckerboard="0"
     inkscape:deskcolor="#d1d1d1" />
  <g
     id="g8"
     inkscape:groupmode="layer"
     inkscape:label="ink_ext_XXXXXX"
     transform="matrix(1.3333333,0,0,-1.3333333,0,181.98667)">
    <g
       id="g10"
       transform="scale(0.1)">
      <path
         d="M 144.32,1150.28 672.055,175.191 1196.22,1152.34 Z M 672.211,90.8711 77.25,1190.16 1263.14,1192.47 672.211,90.8711"
         style="fill:#f9a72b;fill-opacity:1;fill-rule:nonzero;stroke:none"
         id="path12" />
      <path
         d="M 753.41,838.531 H 693.855 V 732.684 h 98.579 L 727.395,606.977 739.168,384.145 959.445,838.531 H 753.41"
         style="fill:#f9a72b;fill-opacity:1;fill-rule:nonzero;stroke:none"
         id="path14" />
      <path
         d="M 1073.76,1096.8 H 266.703 l 342.91,-712.655 21.25,219.097 -156.332,366.539 h 532.439 l 66.79,127.019"
         style="fill:#f9a72b;fill-opacity:1;fill-rule:nonzero;stroke:none"
         id="path16" />
      <path
         d="m 641.176,932.324 h 57.48 c 9.914,0 17.949,-10.051 17.949,-22.449 v -16.562 c 0,-12.399 -8.035,-22.45 -17.949,-22.45 h -57.48 c -9.914,0 -17.953,10.051 -17.953,22.45 v 16.562 c 0,12.398 8.039,22.449 17.953,22.449"
         style="fill:#bf1b2c;fill-opacity:1;fill-rule:nonzero;stroke:none"
         id="path18" />
      <path
         d="M 775.012,281.75 708.984,838.348 H 631.48 L 568.469,281.75 672.199,89.5586 775.012,281.75"
         style="fill:#bf1b2c;fill-opacity:1;fill-rule:nonzero;stroke:none"
         id="path20" />
    </g>
  </g>
</svg>
