<?xml version="1.0" encoding="UTF-8" standalone="no"?>
<!-- Created with Inkscape (http://www.inkscape.org/) -->

<svg
   version="1.1"
   id="svg2"
   width="679.4267"
   height="173.37334"
   viewBox="0 0 679.4267 173.37334"
   sodipodi:docname="GP-name.eps"
   xmlns:inkscape="http://www.inkscape.org/namespaces/inkscape"
   xmlns:sodipodi="http://sodipodi.sourceforge.net/DTD/sodipodi-0.dtd"
   xmlns="http://www.w3.org/2000/svg"
   xmlns:svg="http://www.w3.org/2000/svg">
  <defs
     id="defs6" />
  <sodipodi:namedview
     id="namedview4"
     pagecolor="#ffffff"
     bordercolor="#000000"
     borderopacity="0.25"
     inkscape:showpageshadow="2"
     inkscape:pageopacity="0.0"
     inkscape:pagecheckerboard="0"
     inkscape:deskcolor="#d1d1d1" />
  <g
     id="g8"
     inkscape:groupmode="layer"
     inkscape:label="ink_ext_XXXXXX"
     transform="matrix(1.3333333,0,0,-1.3333333,0,173.37333)">
    <g
       id="g10"
       transform="scale(0.1)">
      <g
         id="g12"
         transform="scale(10)">
        <text
           xml:space="preserve"
           transform="matrix(1,0,0,-1,125.774,58.148)"
           style="font-variant:normal;font-weight:normal;font-size:73px;font-family:AmericanTypewriter;-inkscape-font-specification:AmericanTypewriter;writing-mode:lr-tb;fill:#f9a72b;fill-opacity:1;fill-rule:nonzero;stroke:none"
           id="text16"><tspan
             x="0 51.830002 90.374001 136.87448 166.07449 184.32449 222.86848 290.61166 331.78366"
             y="0"
             sodipodi:role="line"
             id="tspan14">Gent eman</tspan></text>
      </g>
      <path
         d="m 3004.04,1116.84 h 41.08 c 7.09,0 12.84,-7.18 12.84,-16.04 v -11.84 c 0,-8.86 -5.75,-16.05 -12.84,-16.05 h -41.08 c -7.09,0 -12.83,7.19 -12.83,16.05 v 11.84 c 0,8.86 5.74,16.04 12.83,16.04"
         style="fill:#bf1b2c;fill-opacity:1;fill-rule:nonzero;stroke:none"
         id="path18" />
      <path
         d="m 3098.82,577.461 -46.31,474.469 h -55.4 l -46.31,-474.469 74.01,-120.871 74.01,120.871"
         style="fill:#bf1b2c;fill-opacity:1;fill-rule:nonzero;stroke:none"
         id="path20" />
      <path
         d="M 33.5313,1278.08 594.875,240.891 1152.43,1280.27 Z"
         style="fill:none;stroke:#f9a72b;stroke-width:40;stroke-linecap:butt;stroke-linejoin:miter;stroke-miterlimit:10;stroke-dasharray:none;stroke-opacity:1"
         id="path22" />
      <path
         d="M 676.16,946.391 H 616.605 V 840.543 H 715.18 L 650.141,714.836 661.914,492.004 882.195,946.391 H 676.16"
         style="fill:#f9a72b;fill-opacity:1;fill-rule:nonzero;stroke:none"
         id="path24" />
      <path
         d="M 996.508,1204.66 H 189.449 l 342.91,-712.656 21.25,219.098 -156.332,366.538 h 532.438 l 66.793,127.02"
         style="fill:#f9a72b;fill-opacity:1;fill-rule:nonzero;stroke:none"
         id="path26" />
      <path
         d="m 563.922,1040.19 h 57.48 c 9.914,0 17.953,-10.05 17.953,-22.46 v -16.56 c 0,-12.397 -8.039,-22.447 -17.953,-22.447 h -57.48 c -9.914,0 -17.953,10.05 -17.953,22.447 v 16.56 c 0,12.41 8.039,22.46 17.953,22.46"
         style="fill:#bf1b2c;fill-opacity:1;fill-rule:nonzero;stroke:none"
         id="path28" />
      <path
         d="M 697.758,389.613 631.73,946.207 H 554.227 L 491.219,389.613 594.945,197.422 697.758,389.613"
         style="fill:#bf1b2c;fill-opacity:1;fill-rule:nonzero;stroke:none"
         id="path30" />
      <g
         id="g32"
         transform="scale(10)">
        <text
           xml:space="preserve"
           transform="matrix(1,0,0,-1,313.202,34.8594)"
           style="font-variant:normal;font-weight:500;font-size:22px;font-family:Avenir;-inkscape-font-specification:Avenir-Medium;writing-mode:lr-tb;fill:#bf1b2c;fill-opacity:1;fill-rule:nonzero;stroke:none"
           id="text36"><tspan
             x="0 16.45611 33.307713 55.021626 74.732506 93.63092 112.52932 128.56743 138.09378 159.80769 180.72858"
             y="0"
             sodipodi:role="line"
             id="tspan34">PRODUCTIONS</tspan></text>
      </g>
    </g>
  </g>
</svg>
